<svg width="200" height="200" viewBox="0 0 200 200" fill="none" xmlns="http://www.w3.org/2000/svg">
<g clip-path="url(#clip0_362_4)">
<path d="M33.3332 0H58.3332C76.7426 0 91.6664 14.9238 91.6664 33.3332V58.3332C91.6664 76.7426 76.7426 91.6664 58.3332 91.6664H33.3332C14.9238 91.6668 0 76.743 0 58.3332V33.3332C0 14.9238 14.9238 0 33.3332 0Z" fill="white"/>
<path d="M141.667 0H166.667C185.076 0 200 14.9238 200 33.3332V58.3332C200 76.7426 185.076 91.6664 166.667 91.6664H141.667C123.257 91.6664 108.333 76.7426 108.333 58.3332V33.3332C108.333 14.9238 123.257 0 141.667 0Z" fill="white"/>
<path d="M33.3332 108.333H58.3332C76.7426 108.333 91.6664 123.257 91.6664 141.666V166.666C91.6664 185.076 76.7426 199.999 58.3332 199.999H33.3332C14.9238 200 0 185.076 0 166.667V141.667C0 123.257 14.9238 108.333 33.3332 108.333Z" fill="white"/>
<path d="M141.667 108.333H166.667C185.076 108.333 200 123.257 200 141.666V166.666C200 185.076 185.076 200 166.667 200H141.667C123.257 200 108.333 185.076 108.333 166.667V141.667C108.333 123.257 123.257 108.333 141.667 108.333Z" fill="white"/>
</g>
<defs>
<clipPath id="clip0_362_4">
<rect width="200" height="200" fill="white"/>
</clipPath>
</defs>
</svg>
