<svg width="200" height="200" viewBox="0 0 200 200" fill="none" xmlns="http://www.w3.org/2000/svg">
<g clip-path="url(#clip0_362_12)">
<path d="M100 200C119.778 200 139.112 194.135 155.557 183.147C172.002 172.159 184.819 156.541 192.388 138.268C199.957 119.996 201.937 99.8891 198.079 80.491C194.22 61.0929 184.696 43.2746 170.711 29.2894C156.725 15.3041 138.907 5.78004 119.509 1.92152C100.111 -1.93701 80.0043 0.0433286 61.7317 7.61209C43.459 15.1809 27.8412 27.9981 16.853 44.443C5.8649 60.8879 0 80.2219 0 100C0.0286757 126.513 10.5736 151.932 29.321 170.679C48.0684 189.426 73.4871 199.971 100 200ZM100 41.6667C102.472 41.6667 104.889 42.3998 106.945 43.7733C109 45.1469 110.602 47.0991 111.548 49.3832C112.495 51.6672 112.742 54.1806 112.26 56.6053C111.777 59.0301 110.587 61.2574 108.839 63.0055C107.091 64.7537 104.863 65.9442 102.439 66.4265C100.014 66.9088 97.5005 66.6613 95.2165 65.7152C92.9324 64.7691 90.9801 63.167 89.6066 61.1113C88.2331 59.0557 87.5 56.639 87.5 54.1667C87.5 50.8515 88.817 47.6721 91.1612 45.3279C93.5054 42.9837 96.6848 41.6667 100 41.6667ZM91.6667 83.3334H100C104.42 83.3334 108.659 85.0893 111.785 88.2149C114.911 91.3405 116.667 95.5798 116.667 100V150C116.667 152.21 115.789 154.33 114.226 155.893C112.663 157.455 110.543 158.333 108.333 158.333C106.123 158.333 104.004 157.455 102.441 155.893C100.878 154.33 100 152.21 100 150V100H91.6667C89.4565 100 87.3369 99.1221 85.7741 97.5593C84.2113 95.9965 83.3333 93.8768 83.3333 91.6667C83.3333 89.4566 84.2113 87.337 85.7741 85.7742C87.3369 84.2114 89.4565 83.3334 91.6667 83.3334Z" fill="white"/>
</g>
<defs>
<clipPath id="clip0_362_12">
<rect width="200" height="200" fill="white"/>
</clipPath>
</defs>
</svg>
