<svg width="200" height="200" viewBox="0 0 200 200" fill="none" xmlns="http://www.w3.org/2000/svg">
<g clip-path="url(#clip0_362_2)">
<path d="M73.4648 119.617L91.5898 89.4168L24.9064 67.1835C20.0481 65.5668 14.7064 67.5335 12.0731 71.9335L2.41476 88.0251C-3.14358 97.2918 1.30643 109.317 11.5564 112.733L53.8981 126.85C61.3064 129.317 69.4398 126.308 73.4564 119.617H73.4648ZM91.5898 200V121.808L87.7564 128.192C81.5731 138.492 70.7231 144.4 59.2981 144.4C55.7564 144.4 52.1648 143.842 48.6314 142.658L16.5898 131.983V145.758C16.5898 163.692 28.0648 179.617 45.0814 185.283L82.0398 197.6C85.1564 198.608 88.3564 199.442 91.5898 200ZM197.59 88.3001L187.948 72.2335C185.206 67.6585 179.656 65.6085 174.598 67.2918L108.256 89.4085L126.381 119.608C130.398 126.308 138.531 129.317 145.94 126.842L188.59 112.625C198.681 109.258 203.065 97.4251 197.59 88.3001ZM140.548 144.408C129.123 144.408 118.273 138.508 112.09 128.2L108.256 121.817V199.967C111.773 199.35 115.256 198.45 118.556 197.35H118.64L154.765 185.3C171.781 179.625 183.256 163.708 183.256 145.775V131.992L151.215 142.675C147.681 143.858 144.09 144.408 140.548 144.408ZM159.19 51.9418C158.523 54.7418 156.456 57.0001 153.723 57.9085L103.081 74.7835C102.223 75.0668 101.331 75.2168 100.448 75.2168C99.5648 75.2168 98.6648 75.0751 97.8148 74.7835L67.1231 64.3168L110.531 21.0668C117.048 14.5418 127.615 14.5501 134.115 21.0501L156.99 44.1335C159.023 46.1835 159.848 49.1335 159.181 51.9418H159.19ZM40.2231 56.3001C37.4648 55.3918 35.3898 53.0918 34.7398 50.2585C34.0898 47.4251 34.9564 44.4668 37.0398 42.4335L75.5814 4.80846C81.9981 -1.62487 92.5814 -1.60821 99.0731 4.88346L101.598 7.40846C100.548 8.23346 99.4648 8.99179 98.5064 9.95013L49.2231 59.0668L40.2231 56.3001Z" fill="white"/>
</g>
<defs>
<clipPath id="clip0_362_2">
<rect width="200" height="200" fill="white"/>
</clipPath>
</defs>
</svg>
