<svg width="200" height="200" viewBox="0 0 200 200" fill="none" xmlns="http://www.w3.org/2000/svg">
<g clip-path="url(#clip0_362_10)">
<path d="M75 183.333C75 192.542 67.5417 200 58.3333 200C49.125 200 41.6667 192.542 41.6667 183.333C41.6667 174.125 49.125 166.667 58.3333 166.667C67.5417 166.667 75 174.125 75 183.333ZM141.667 166.667C132.458 166.667 125 174.125 125 183.333C125 192.542 132.458 200 141.667 200C150.875 200 158.333 192.542 158.333 183.333C158.333 174.125 150.875 166.667 141.667 166.667ZM200 41.6667C200 64.675 181.342 83.3333 158.333 83.3333C135.325 83.3333 116.667 64.675 116.667 41.6667C116.667 18.6583 135.325 0 158.333 0C181.342 0 200 18.6583 200 41.6667ZM175 58.3333C178.25 55.0833 178.25 49.8 175 46.55L166.667 38.2167V25C166.667 20.4 162.933 16.6667 158.333 16.6667C153.733 16.6667 150 20.4 150 25V41.6667C150 43.875 150.875 46 152.442 47.5583L163.217 58.3333C166.467 61.5833 171.75 61.5833 175 58.3333ZM158.333 100.958C126.167 100.958 100 74.7833 100 42.625C100 36.4833 100.967 30.5667 102.742 25H43.6833L43.3417 22.0667C41.85 9.48333 31.175 0 18.5167 0H8.33333C3.725 0 0 3.73333 0 8.33333C0 12.9333 3.725 16.6667 8.33333 16.6667H18.5167C22.7417 16.6667 26.3 19.8333 26.7917 24.025L38.2583 121.542C40.7333 142.517 58.525 158.342 79.6417 158.342H158.333C162.942 158.342 166.667 154.608 166.667 150.008C166.667 145.408 162.942 141.675 158.333 141.675H79.6417C68.875 141.675 59.6083 134.792 56.1417 125.008H151.342C171.133 125.008 188.317 110.925 192.192 91.5167L192.533 89.7917C182.908 96.7917 171.117 100.967 158.333 100.967V100.958Z" fill="white"/>
</g>
<defs>
<clipPath id="clip0_362_10">
<rect width="200" height="200" fill="white"/>
</clipPath>
</defs>
</svg>
